<svg id="Layer_1" data-name="Layer 1" xmlns="http://www.w3.org/2000/svg" viewBox="0 0 452.32 458.45"><defs><style>.cls-1,.cls-3{stroke:#fff;}.cls-1,.cls-2,.cls-3{stroke-miterlimit:10;}.cls-1{stroke-width:30px;}.cls-2{fill:#fcfcfc;stroke:#000;}.cls-3{fill:#020202;}</style></defs><title>logo__front-page</title><path class="cls-1" d="M793.51,358.61c0-26,.2-52.1-0.1-78.1a58.92,58.92,0,0,0-3.1-18.2c-5.9-16.4-17.8-27.1-33.3-34.8-24.1-12-47.8-24.9-71.5-37.5-21.7-11.5-43.2-23.5-65.1-34.6a103.72,103.72,0,0,0-25.2-9.5c-19.1-4-36.7,1.2-53.4,10.9-14,8.1-28.5,15.5-42.9,23.1-17.7,9.4-35.6,18.5-53.3,27.9-14.1,7.4-28,15-42,22.6-20.3,11-32.1,27.5-32.2,51-0.2,51.8-.1,103.5,0,155.3a46,46,0,0,0,1.6,13.4c5.1,16.6,15,29.4,30.9,37.4,20.1,10.2,40,21,59.9,31.6,28.2,14.9,56.7,29.5,84.7,44.9,17.6,9.6,35.8,11.6,54.4,5.6,10.5-3.4,20.3-9.2,30.2-14.3,14.1-7.3,28-15,42.1-22.5l56.4-29.7c9.2-4.8,18.3-9.7,27.5-14.5,21.4-10.9,34.1-27.7,34.3-52.3C793.81,410.31,793.51,384.51,793.51,358.61Z" transform="translate(-356.29 -129.56)"/><rect class="cls-2" x="85.91" y="88.98" width="280.5" height="280.5"/><path class="cls-3" d="M793.51,358.61c0-26,.2-52.1-0.1-78.1a58.92,58.92,0,0,0-3.1-18.2c-5.9-16.4-17.8-27.1-33.3-34.8-24.1-12-47.8-24.9-71.5-37.5-21.7-11.5-43.2-23.5-65.1-34.6a103.72,103.72,0,0,0-25.2-9.5c-19.1-4-36.7,1.2-53.4,10.9-14,8.1-28.5,15.5-42.9,23.1-17.7,9.4-35.6,18.5-53.3,27.9-14.1,7.4-28,15-42,22.6-20.3,11-32.1,27.5-32.2,51-0.2,51.8-.1,103.5,0,155.3a46,46,0,0,0,1.6,13.4c5.1,16.6,15,29.4,30.9,37.4,20.1,10.2,40,21,59.9,31.6,28.2,14.9,56.7,29.5,84.7,44.9,17.6,9.6,35.8,11.6,54.4,5.6,10.5-3.4,20.3-9.2,30.2-14.3,14.1-7.3,28-15,42.1-22.5l56.4-29.7c9.2-4.8,18.3-9.7,27.5-14.5,21.4-10.9,34.1-27.7,34.3-52.3C793.81,410.31,793.51,384.51,793.51,358.61Zm-93,7.7c-0.8,1.9-3.7,5.8-8.8,11.7s-9.8,11.7-14,17.4c-1.9,0-2.9.2-2.9,0.6,0.8,0.8.6,1-.6,0.8s-1.9.7-2.3,2.6a6,6,0,0,1-.3,2,6,6,0,0,0-.3,2,3.5,3.5,0,0,0-1.4,1.1,8,8,0,0,1-1.4,1.7c-1.1-.8-1.9-0.8-2.3,0-0.8.8-1.3,1-1.7,0.8a0.83,0.83,0,0,0-1.1.3,2.86,2.86,0,0,0-1.1,1.7,9.21,9.21,0,0,0,3.4-1.1,0.53,0.53,0,0,1-.6.6,8,8,0,0,1-3.4,1.1,0.86,0.86,0,0,1-.6.3,3,3,0,0,1-1.1.3,4.29,4.29,0,0,0-1.7.6,1.74,1.74,0,0,1,1.1-.6,1.38,1.38,0,0,0,1.1-.6,6,6,0,0,1-2-.3,1.2,1.2,0,0,0-1.4.3,2.11,2.11,0,0,1-.8.6,1.68,1.68,0,0,0-.9.6,22.3,22.3,0,0,1-12.2-3.7c-4-2.5-7.5-7.1-10.5-14a59.31,59.31,0,0,1-4.6-13.4,53.55,53.55,0,0,1-1.1-10.5,35.44,35.44,0,0,1,1.1-9.1c-0.4,0-1.3.6-2.8,1.7a30.41,30.41,0,0,0-9.7,11.4c-2.3,3.4-5.6,7.8-10,13.1l-13.1,16c-4.4,5.3-8.5,10-12.2,14s-6.3,6.2-7.4,6.6-3.2.4-6.3,0a31.22,31.22,0,0,1-9.1-2.6,16.66,16.66,0,0,1-7.4-6.3c-1.9-2.9-2.1-6.7-.6-11.7a207.67,207.67,0,0,0,4.8-21.1q2.55-13.65,6.3-29.4c2.5-10.5,5.3-20.8,8.5-31.1a143.26,143.26,0,0,1,11.1-26.8c-3,4.9-6.5,10.8-10.3,17.7-3,5.7-6.7,12.5-10.8,20.2s-8.7,16.4-13.7,25.9q-14.85,28.5-25.9,45.9c-7.4,11.6-11.5,18.9-12.3,22-0.4,3-1,4.7-1.7,4.8a44.08,44.08,0,0,0-5.7,2.6c-3,1.5-4.8,2.8-5.4,3.7a8.16,8.16,0,0,1-3.7,2.6,29.59,29.59,0,0,1-6,1.7c-2.1.4-4.7-1.3-7.7-5.1a12.78,12.78,0,0,0-5.1-4,13.91,13.91,0,0,1-5.1-3.7c-1.5-1.7-2.5-4.4-2.8-8s0.4-8.8,2.3-15.7c1.9-7.2,4.3-15.2,7.1-23.9s5.4-17,7.7-24.8,4-14.3,5.1-19.7,1.1-8.4,0-9.1c-4.6-2.3-8.4-3.4-11.4-3.4-0.8,0-1.2-.7-1.4-2a9.08,9.08,0,0,1,.3-4c0.4-1.3,4.6-5.2,6.8-4.8a88.57,88.57,0,0,1,18.5,4,27.77,27.77,0,0,1,12.8,8.5c3,3.8,4,8.8,2.8,15.1s-2.1,10.7-2.8,13.4l-9.7,38.8c6.8-12.5,13.5-24.5,20-35.9q7.95-14.85,16.5-29.1c5.7-9.5,10.1-16.9,13.1-22.2a153.48,153.48,0,0,1,12.3-18c5.1-6.6,10.2-12.8,15.1-18.5s9.3-10.5,13.1-14.3,6.1-5.5,6.8-5.1a14.25,14.25,0,0,1,5.4,2.3c1.7,1.1,1.8,2.5.3,4l-6.8,6.8c-1.5,0-2.5.6-2.8,1.7q-0.6,1.2,0,.6c0.4-.4,1.1-0.2,2.3.6s1.3,1.5.6,2.3-0.2,1.1,1.7,1.1c1.5-.4,2.3-0.7,2.3-0.9s0.4-.1,1.1.3l0.6,0.6a6,6,0,0,1,2.3,3.4c0.4,1.5.9,2.1,1.7,1.7a1.22,1.22,0,0,0,.9-0.3,1.22,1.22,0,0,1,.9-0.3c4.6,3.8,6.8,7.2,6.8,10.3a138.23,138.23,0,0,1-4.9,14.5c-2.8,7.8-6,16.1-9.4,24.8s-6.7,17-9.7,24.8-4.8,12.8-5.1,15.1c-0.8,3.4-1.9,7.7-3.4,12.8s-2.5,8.5-2.8,10c0.4-1.1,2.7-4.6,6.8-10.5s8.7-12.2,13.7-18.8,9.8-12.6,14.5-18,8.3-8,10.5-8a29.29,29.29,0,0,1,14.2,2.6,14.76,14.76,0,0,1,9.1,11.1,58.83,58.83,0,0,1,.3,11.1c-0.2,5.1-.6,10.4-1.1,15.7a130.77,130.77,0,0,0-.9,14.5c0,4.4.6,6.8,1.7,7.1,1.1,0.8,3.6.6,7.4-.6a63.34,63.34,0,0,0,13.1-6,80,80,0,0,0,14.5-11.1,67,67,0,0,0,12.3-16.5l2.3,2.3C701.21,362.51,701.61,364.41,700.51,366.31Z" transform="translate(-356.29 -129.56)"/></svg>