<svg id="Слой_1" data-name="Слой 1" xmlns="http://www.w3.org/2000/svg" viewBox="0 0 32 16"><defs><style>.cls-1{fill:#fafcfc;}</style></defs><title>menu__open-white</title><path class="cls-1" d="M22.14,9a0.89,0.89,0,0,0-.69-1H0.76A0.89,0.89,0,0,0,.07,9a0.89,0.89,0,0,0,.69,1H21.45A0.89,0.89,0,0,0,22.14,9Z" transform="translate(-0.07 -8)"/><path class="cls-1" d="M31.07,15h-30a1,1,0,1,0,0,2h30A1,1,0,1,0,31.07,15Z" transform="translate(-0.07 -8)"/><path class="cls-1" d="M31.07,22h-20a1,1,0,0,0,0,2h20A1,1,0,1,0,31.07,22Z" transform="translate(-0.07 -8)"/></svg>